<svg xmlns="http://www.w3.org/2000/svg" viewBox="0 0 1200 720"><rect width="1200" height="720" rx="48" fill="#032539"/><g opacity=".13" stroke="#e8e9e4"><path d="M90 90H1110V630H90z"/><path d="M90 198H1110M90 306H1110M90 414H1110M90 522H1110M260 90V630M430 90V630M600 90V630M770 90V630M940 90V630"/></g><path d="M100 582C190 530 270 560 350 488C434 410 500 442 590 352C690 252 812 276 910 200C1010 122 1084 150 1120 118V632H100z" fill="#a6bd8f" opacity=".18"/><path d="M112 580C196 530 280 552 354 486C440 410 498 438 590 352C690 254 812 276 910 200C1008 124 1084 150 1120 118" fill="none" stroke="#a6bd8f" stroke-width="10" stroke-linecap="round"/><path d="M112 600C220 590 340 612 458 562C560 520 628 484 704 488C810 492 908 548 1098 510" fill="none" stroke="#ffffff" stroke-width="6" stroke-linecap="round" opacity=".72"/><g fill="#e8e9e4" font-family="Inter, Arial"><text x="106" y="72" font-size="34" font-weight="800">Hydrology / Stormwater Model</text><text x="106" y="126" font-size="18" font-weight="700" opacity=".78">Rainfall · peak discharge · routed design hydrograph · ARR 2019</text></g><g><rect x="760" y="438" width="330" height="118" rx="24" fill="#e8e9e4" fill-opacity=".11" stroke="#e8e9e4" stroke-opacity=".18"/><text x="788" y="480" font-family="Inter, Arial" fill="#ffffff" font-size="20" font-weight="800">Technical output</text><text x="788" y="512" font-family="Inter, Arial" fill="#e8e9e4" font-size="16" font-weight="700">Concept drainage network</text><text x="788" y="538" font-family="Inter, Arial" fill="#e8e9e4" font-size="16" font-weight="700">Design hydrograph evidence</text></g></svg>