<svg xmlns="http://www.w3.org/2000/svg" viewBox="0 0 1200 720"><defs><linearGradient id="bg" x1="0" y1="0" x2="1" y2="1"><stop stop-color="#032539"/><stop offset="1" stop-color="#174349"/></linearGradient><linearGradient id="card" x1="0" y1="0" x2="1" y2="1"><stop stop-color="#e8e9e4" stop-opacity=".16"/><stop offset="1" stop-color="#e8e9e4" stop-opacity=".05"/></linearGradient><filter id="shadow" x="-20%" y="-20%" width="140%" height="140%"><feDropShadow dx="0" dy="24" stdDeviation="28" flood-color="#000" flood-opacity=".35"/></filter></defs><rect width="1200" height="720" rx="48" fill="url(#bg)"/><g opacity=".18" stroke="#e8e9e4" stroke-width="1"><path d="M0 100H1200M0 200H1200M0 300H1200M0 400H1200M0 500H1200M0 600H1200"/><path d="M100 0V720M200 0V720M300 0V720M400 0V720M500 0V720M600 0V720M700 0V720M800 0V720M900 0V720M1000 0V720M1100 0V720"/></g><g filter="url(#shadow)"><rect x="72" y="72" width="1056" height="576" rx="34" fill="url(#card)" stroke="#e8e9e4" stroke-opacity=".22"/><rect x="108" y="112" width="432" height="234" rx="24" fill="#032539" stroke="#a6bd8f" stroke-opacity=".55"/><path d="M136 290C190 225 244 246 292 198C336 154 386 174 430 132C460 103 500 120 516 112" fill="none" stroke="#a6bd8f" stroke-width="8" stroke-linecap="round"/><circle cx="292" cy="198" r="10" fill="#fff"/><circle cx="430" cy="132" r="10" fill="#fff"/><rect x="580" y="112" width="244" height="108" rx="24" fill="#e8e9e4" fill-opacity=".12" stroke="#e8e9e4" stroke-opacity=".2"/><rect x="852" y="112" width="244" height="108" rx="24" fill="#a6bd8f" fill-opacity=".18" stroke="#a6bd8f" stroke-opacity=".45"/><rect x="580" y="248" width="516" height="98" rx="24" fill="#e8e9e4" fill-opacity=".08" stroke="#e8e9e4" stroke-opacity=".18"/><rect x="108" y="388" width="988" height="190" rx="28" fill="#e8e9e4" fill-opacity=".075" stroke="#e8e9e4" stroke-opacity=".18"/><path d="M150 520h160l70-58 120 38 86-76 110 54 96-32 74 48 150-94" fill="none" stroke="#a6bd8f" stroke-width="6" stroke-linecap="round" stroke-linejoin="round"/><g fill="#e8e9e4" font-family="Inter, Arial" font-weight="700"><text x="132" y="146" font-size="26">Infrastructure Evidence Dashboard</text><text x="604" y="154" font-size="20">GIS layers</text><text x="876" y="154" font-size="20">Transport planning</text><text x="604" y="286" font-size="20">Hydrology / stormwater / standards</text><text x="132" y="430" font-size="22">Project proof mapped into readable evidence</text></g></g></svg>