<svg xmlns="http://www.w3.org/2000/svg" viewBox="0 0 1200 720"><defs><linearGradient id="bg" x1="0" y1="0" x2="1" y2="1"><stop stop-color="#032539"/><stop offset="1" stop-color="#0d3c3f"/></linearGradient></defs><rect width="1200" height="720" rx="48" fill="url(#bg)"/><g opacity=".11" stroke="#e8e9e4" stroke-width="2"><path d="M0 120H1200M0 240H1200M0 360H1200M0 480H1200M0 600H1200"/><path d="M120 0V720M240 0V720M360 0V720M480 0V720M600 0V720M720 0V720M840 0V720M960 0V720M1080 0V720"/></g><g stroke-linecap="round" stroke-linejoin="round"><path d="M70 560C180 500 250 520 350 430C440 350 520 378 610 300C720 204 816 230 920 156C1010 92 1100 122 1140 84" fill="none" stroke="#a6bd8f" stroke-width="18" opacity=".80"/><path d="M110 180C250 230 324 180 430 250C560 334 640 280 760 354C878 426 968 396 1090 480" fill="none" stroke="#e8e9e4" stroke-width="12" opacity=".55"/><path d="M220 650L314 518L420 620L520 452L660 540L798 398L930 500L1040 342" fill="none" stroke="#ffffff" stroke-width="6" opacity=".75"/></g><g><circle cx="350" cy="430" r="26" fill="#fff"/><circle cx="610" cy="300" r="26" fill="#fff"/><circle cx="920" cy="156" r="26" fill="#fff"/><circle cx="350" cy="430" r="12" fill="#032539"/><circle cx="610" cy="300" r="12" fill="#032539"/><circle cx="920" cy="156" r="12" fill="#032539"/></g><g fill="#e8e9e4" font-family="Inter, Arial" font-weight="800"><text x="70" y="84" font-size="36">Walking Network / GIS Prioritisation</text><text x="70" y="126" font-size="20" opacity=".78">Spatial scoring · proximity checks · infrastructure layers</text></g><g fill="#032539"><rect x="760" y="540" width="310" height="92" rx="24" fill="#e8e9e4"/><text x="786" y="578" font-family="Inter, Arial" font-size="20" font-weight="800">3,500+ footpath records</text><text x="786" y="608" font-family="Inter, Arial" font-size="16" font-weight="700" opacity=".78">Evidence-driven council planning</text></g></svg>