<svg xmlns="http://www.w3.org/2000/svg" viewBox="0 0 96 96" role="img" aria-label="AS logo">
<rect width="96" height="96" rx="26" fill="#032539"/>
<path d="M24 65L43 25h10l19 40H61l-4-9H39l-4 9H24zm19-18h10l-5-12-5 12z" fill="#ffffff"/>
<path d="M59 67c-8 0-14-4-18-9l8-6c3 4 7 6 11 6 3 0 5-1 5-3 0-3-4-4-9-5-8-2-14-5-14-13 0-8 7-14 17-14 7 0 13 3 17 8l-8 7c-3-3-6-5-10-5-3 0-5 1-5 3 0 3 4 4 9 5 8 2 14 5 14 13 0 9-7 13-17 13z" fill="#a6bd8f" opacity=".96"/>
<circle cx="76" cy="20" r="6" fill="#e8e9e4"/>
</svg>