<svg xmlns="http://www.w3.org/2000/svg" viewBox="0 0 1200 630"><defs><linearGradient id="bg" x1="0" x2="1200" y1="0" y2="630"><stop stop-color="#06101D"/><stop offset="1" stop-color="#0E2A3E"/></linearGradient><linearGradient id="g" x1="80" x2="1120" y1="80" y2="560"><stop stop-color="#4DE2FF"/><stop offset=".62" stop-color="#8CFFD2"/><stop offset="1" stop-color="#F7C66A"/></linearGradient></defs><rect width="1200" height="630" fill="url(#bg)"/><g opacity=".14" stroke="#fff"><path d="M0 90h1200M0 180h1200M0 270h1200M0 360h1200M0 450h1200M0 540h1200M100 0v630M200 0v630M300 0v630M400 0v630M500 0v630M600 0v630M700 0v630M800 0v630M900 0v630M1000 0v630M1100 0v630"/></g><path d="M800 470c60-58 102-78 160-54 72 30 111 10 160-54" fill="none" stroke="url(#g)" stroke-width="12" stroke-linecap="round"/><text x="76" y="210" fill="#fff" font-family="Space Grotesk,Inter,Arial" font-size="82" font-weight="900" letter-spacing="-4">Abhaya Simkhada</text><text x="80" y="285" fill="#8CFFD2" font-family="Inter,Arial" font-size="30" font-weight="900">Graduate Civil Engineer · Transport Planning · GIS · Hydrology</text><text x="80" y="380" fill="#AFC4D8" font-family="Inter,Arial" font-size="30" font-weight="700">Practical infrastructure thinking for councils, communities and growing regions.</text><circle cx="1012" cy="245" r="92" fill="none" stroke="url(#g)" stroke-width="10"/><text x="954" y="270" fill="#fff" font-family="Space Grotesk,Arial" font-size="70" font-weight="900">AS</text></svg>
