<svg xmlns="http://www.w3.org/2000/svg" viewBox="0 0 900 520"><defs><linearGradient id="bg" x1="0" x2="900" y1="0" y2="520"><stop stop-color="#07101D"/><stop offset="1" stop-color="#171F2D"/></linearGradient><linearGradient id="g" x1="140" x2="760" y1="130" y2="400"><stop stop-color="#8CFFD2"/><stop offset=".52" stop-color="#4DE2FF"/><stop offset="1" stop-color="#F7C66A"/></linearGradient><filter id="glow"><feGaussianBlur stdDeviation="3" result="b"/><feMerge><feMergeNode in="b"/><feMergeNode in="SourceGraphic"/></feMerge></filter></defs><rect width="900" height="520" fill="url(#bg)"/><g fill="none" stroke="url(#g)" stroke-width="10" stroke-linecap="round" stroke-linejoin="round" filter="url(#glow)"><path d="M130 376h640L450 144 130 376Z"/><path d="M225 376 450 144l225 232"/><path d="M320 376 450 144l130 232"/><path d="M225 376h450M280 302h340" opacity=".82"/></g><g fill="#06101D" stroke="#8CFFD2" stroke-width="5"><circle cx="130" cy="376" r="16"/><circle cx="450" cy="144" r="16"/><circle cx="770" cy="376" r="16"/><circle cx="320" cy="376" r="12"/><circle cx="580" cy="376" r="12"/></g><g stroke="rgba(255,255,255,.15)"><path d="M92 421h716" stroke-width="4"/><path d="M132 438h64M704 438h64" stroke-width="8" stroke-linecap="round"/></g><text x="54" y="72" fill="#fff" font-family="Inter,Arial" font-size="31" font-weight="900">STRUCTURAL TRUSS TEST</text><text x="54" y="108" fill="#AFC4D8" font-family="Inter,Arial" font-size="18" font-weight="700">Load paths · member forces · limit state checks</text></svg>
