<svg xmlns="http://www.w3.org/2000/svg" viewBox="0 0 900 520"><defs><linearGradient id="bg" x1="0" x2="900" y1="0" y2="520"><stop stop-color="#071624"/><stop offset="1" stop-color="#102A42"/></linearGradient><linearGradient id="g" x1="88" x2="812" y1="85" y2="440"><stop stop-color="#4DE2FF"/><stop offset="1" stop-color="#8CFFD2"/></linearGradient></defs><rect width="900" height="520" fill="url(#bg)"/><g opacity=".13" stroke="#fff"><path d="M0 80h900M0 160h900M0 240h900M0 320h900M0 400h900M100 0v520M200 0v520M300 0v520M400 0v520M500 0v520M600 0v520M700 0v520M800 0v520"/></g><path d="M65 406c86-65 135-85 211-68 80 18 111 58 180 40 96-24 114-123 215-139 61-10 113 14 168 60v151H65Z" fill="url(#g)" opacity=".30"/><path d="M65 406c86-65 135-85 211-68 80 18 111 58 180 40 96-24 114-123 215-139 61-10 113 14 168 60" fill="none" stroke="url(#g)" stroke-width="8" stroke-linecap="round"/><g fill="#06101D" stroke="#8CFFD2" stroke-width="4"><circle cx="276" cy="338" r="16"/><circle cx="456" cy="378" r="16"/><circle cx="671" cy="239" r="16"/></g><text x="54" y="72" fill="#fff" font-family="Inter,Arial" font-size="31" font-weight="900">HYDROLOGY MODEL</text><text x="54" y="108" fill="#AFC4D8" font-family="Inter,Arial" font-size="18" font-weight="700">RORB · ARR Data Hub · peak discharge · stormwater</text></svg>
