<svg xmlns="http://www.w3.org/2000/svg" viewBox="0 0 900 520"><defs><linearGradient id="bg" x1="0" x2="900" y1="0" y2="520"><stop stop-color="#07101D"/><stop offset="1" stop-color="#0E263A"/></linearGradient><linearGradient id="g" x1="80" x2="820" y1="60" y2="460"><stop stop-color="#F7C66A"/><stop offset=".45" stop-color="#4DE2FF"/><stop offset="1" stop-color="#8CFFD2"/></linearGradient></defs><rect width="900" height="520" fill="url(#bg)"/><g fill="none" stroke="rgba(255,255,255,.13)"><path d="M100 80h700v360H100z"/><path d="M100 170h700M100 260h700M100 350h700M240 80v360M380 80v360M520 80v360M660 80v360"/></g><g fill="none" stroke="url(#g)" stroke-width="9" stroke-linecap="round" stroke-linejoin="round"><path d="M126 390c75-88 131-113 205-82 78 33 112 18 160-54 49-73 116-112 210-73 34 14 59 36 82 67"/><path d="M156 143h192l60 70 112-60 213 7" opacity=".55"/></g><g fill="#06101D" stroke="#4DE2FF" stroke-width="4"><circle cx="126" cy="390" r="17"/><circle cx="331" cy="308" r="17"/><circle cx="491" cy="254" r="17"/><circle cx="701" cy="181" r="17"/><circle cx="783" cy="248" r="17"/></g><text x="54" y="72" fill="#fff" font-family="Inter,Arial" font-size="31" font-weight="900">WALKING NETWORK PLAN</text><text x="54" y="108" fill="#AFC4D8" font-family="Inter,Arial" font-size="18" font-weight="700">Proximity scoring · route mapping · active transport</text></svg>
