<svg xmlns="http://www.w3.org/2000/svg" viewBox="0 0 900 520"><defs><linearGradient id="bg" x1="0" x2="900" y1="0" y2="520"><stop stop-color="#0B1321"/><stop offset="1" stop-color="#1B2A38"/></linearGradient><linearGradient id="rock" x1="70" x2="770" y1="140" y2="480"><stop stop-color="#8CFFD2"/><stop offset=".55" stop-color="#F7C66A"/><stop offset="1" stop-color="#A86B4E"/></linearGradient></defs><rect width="900" height="520" fill="url(#bg)"/><path d="M0 412c105-56 173-69 259-43 63 19 106 12 161-34 76-64 164-67 265-10 67 38 135 47 215 18v177H0Z" fill="url(#rock)" opacity=".32"/><path d="M0 412c105-56 173-69 259-43 63 19 106 12 161-34 76-64 164-67 265-10 67 38 135 47 215 18" fill="none" stroke="url(#rock)" stroke-width="9"/><g fill="none" stroke="rgba(255,255,255,.18)" stroke-width="3"><path d="M116 405l58-70 86 35 72-81 94 50 75-93 118 78 111-52"/><path d="M170 470l78-61 83 31 110-60 90 57 126-88 91 40"/></g><g transform="translate(610 92)"><rect width="210" height="136" rx="22" fill="rgba(255,255,255,.08)" stroke="rgba(255,255,255,.18)"/><circle cx="58" cy="70" r="31" fill="#4DE2FF" opacity=".65"/><path d="M118 40h56M118 70h62M118 100h42" stroke="#EAF7FF" stroke-width="8" stroke-linecap="round"/></g><text x="54" y="72" fill="#fff" font-family="Inter,Arial" font-size="31" font-weight="900">GEOTECH FIELD + LAB</text><text x="54" y="108" fill="#AFC4D8" font-family="Inter,Arial" font-size="18" font-weight="700">Mapping · classification · permeability · shear strength</text></svg>
