<svg xmlns="http://www.w3.org/2000/svg" viewBox="0 0 900 520"><defs><linearGradient id="bg" x1="0" x2="900" y1="0" y2="520"><stop stop-color="#07101D"/><stop offset="1" stop-color="#10243A"/></linearGradient><linearGradient id="g" x1="110" x2="790" y1="110" y2="420"><stop stop-color="#4DE2FF"/><stop offset="1" stop-color="#F7C66A"/></linearGradient></defs><rect width="900" height="520" fill="url(#bg)"/><g transform="translate(110 132) skewY(-8)"><rect width="680" height="270" rx="28" fill="rgba(255,255,255,.07)" stroke="rgba(255,255,255,.18)"/><g stroke="rgba(255,255,255,.22)"><path d="M70 0v270M170 0v270M270 0v270M370 0v270M470 0v270M570 0v270"/><path d="M0 90h680M0 180h680"/></g><path d="M36 225c84-67 145-89 222-55 91 40 128 28 201-58 56-65 105-73 185-34" fill="none" stroke="url(#g)" stroke-width="8" stroke-linecap="round"/><g fill="#4DE2FF"><rect x="96" y="36" width="54" height="28" rx="8"/><rect x="302" y="125" width="54" height="28" rx="8"/><rect x="508" y="208" width="54" height="28" rx="8"/></g></g><text x="54" y="72" fill="#fff" font-family="Inter,Arial" font-size="31" font-weight="900">TRANSIT CAR PARK DESIGN</text><text x="54" y="108" fill="#AFC4D8" font-family="Inter,Arial" font-size="18" font-weight="700">500–2,000 vehicles/day · stormwater · cost planning</text></svg>
